<svg version="1.1" xmlns="http://www.w3.org/2000/svg" viewBox="0 0 48 48">
    <path fill="#EA4335" d="M24 9.5c3.54 0 6.71 1.22 9.21 3.6l6.85-6.85C35.9 2.38 30.47 0 24 0 14.62 0 6.51 5.38 2.56 13.22l7.98 6.19C12.43 13.75 17.7 9.5 24 9.5z"/>
    <path fill="#4285F4" d="M46.98 24.55c0-1.57-.15-3.09-.38-4.55H24v9.02h12.94c-.58 2.96-2.27 5.48-4.9 7.18l7.71 5.98c4.51-4.18 7.15-10.33 7.15-18.63z"/>
    <path fill="#FBBC05" d="M10.53 28.59c-.48-1.45-.76-2.99-.76-4.59s.27-3.14.76-4.59l-7.98-6.19C3.07 15.48 2.5 19.65 2.5 24c0 4.35.57 8.52 1.55 12.22l7.98-6.19z"/>
    <path fill="#34A853" d="M24 48c6.48 0 11.93-2.13 15.89-5.81l-7.71-5.98c-2.15 1.45-4.9 2.3-8.18 2.3-6.3 0-11.57-4.25-13.4-9.93l-7.98 6.19C6.51 42.62 14.62 48 24 48z"/>
    <path fill="none" d="M0 0h48v48H0z"/>
</svg>
